ffmpeg version N-82167-g5e96558 Copyright (c) 2000-2016 the FFmpeg developers
  built with gcc 5.4.0 (Ubuntu 5.4.0-6ubuntu1~16.04.2) 20160609
  configuration: --prefix=/root/ffmpeg_build --pkg-config-flags=--static --extra-cflags=-I/root/ffmpeg_build/include --extra-ldflags=-L/root/ffmpeg_build/lib --bindir=/root/bin --enable-gpl --enable-libass --enable-libfdk-aac --enable-libfreetype --enable-libmp3lame --enable-libopus --enable-libtheora --enable-libvorbis --enable-libx264 --enable-libx265 --enable-nonfree
  libavutil      55. 35.100 / 55. 35.100
  libavcodec     57. 65.100 / 57. 65.100
  libavformat    57. 57.100 / 57. 57.100
  libavdevice    57.  2.100 / 57.  2.100
  libavfilter     6. 66.100 /  6. 66.100
  libswscale      4.  3.100 /  4.  3.100
  libswresample   2.  4.100 /  2.  4.100
  libpostproc    54.  2.100 / 54.  2.100
Input #0, matroska,webm, from '/media/yubikiri/bot/queue/3AnimePahe_Detective_Conan_-_027_720p_Fansub.mkv':
  Metadata:
    title           : 3|Text||0|0
    ENCODER         : Lavf57.57.100
  Duration: 00:24:29.68, start: 0.000000, bitrate: 950 kb/s
    Stream #0:0: Video: mpeg4 (Simple Profile), yuv420p, 640x480 [SAR 1:1 DAR 4:3], 23.98 fps, 23.98 tbr, 1k tbn, 23.98 tbc (default)
    Metadata:
      DURATION        : 00:24:29.678000000
    Stream #0:1: Audio: mp3, 48000 Hz, stereo, s16p, 80 kb/s (default)
    Metadata:
      DURATION        : 00:24:29.280000000
[libx264 @ 0x2dda340] using SAR=1/1
[libx264 @ 0x2dda340] using cpu capabilities: MMX2 SSE2Fast SSSE3 SSE4.2 AVX FMA3 AVX2 LZCNT BMI2
[libx264 @ 0x2dda340] profile High, level 3.1
[libx264 @ 0x2dda340] 264 - core 148 r2643 5c65704 - H.264/MPEG-4 AVC codec - Copyleft 2003-2015 - http://www.videolan.org/x264.html - options: cabac=1 ref=8 deblock=1:1:1 analyse=0x3:0x133 me=umh subme=7 psy=1 psy_rd=0.00:0.00 mixed_ref=1 me_range=8 chroma_me=1 trellis=0 8x8dct=1 cqm=0 deadzone=21,11 fast_pskip=1 chroma_qp_offset=0 threads=8 lookahead_threads=2 sliced_threads=0 nr=0 decimate=1 interlaced=0 bluray_compat=0 constrained_intra=0 bframes=3 b_pyramid=2 b_adapt=2 b_bias=0 direct=1 weightb=1 open_gop=0 weightp=2 keyint=240 keyint_min=24 scenecut=40 intra_refresh=0 rc_lookahead=60 rc=crf mbtree=1 crf=27.0 qcomp=0.60 qpmin=0 qpmax=69 qpstep=4 ip_ratio=1.40 aq=1:1.00
[libfdk_aac @ 0x2e6e240] Note, the VBR setting is unsupported and only works with some parameter combinations
Output #0, mp4, to '/media/yubikiri/bot/queue/3AnimePahe_Detective_Conan_-_027_720p_Fansub.mkv_encoded.mp4':
  Metadata:
    encoder         : Lavf57.57.100
    Stream #0:0: Video: h264 (libx264) ([33][0][0][0] / 0x0021), yuv420p, 640x480 [SAR 1:1 DAR 4:3], q=-1--1, 23.98 fps, 11988 tbn, 23.98 tbc (default)
    Metadata:
      encoder         : Lavc57.65.100 libx264
    Side data:
      cpb: bitrate max/min/avg: 0/0/0 buffer size: 0 vbv_delay: -1
    Stream #0:1: Audio: aac (libfdk_aac) (HE-AACv2) ([64][0][0][0] / 0x0040), 48000 Hz, stereo, s16, 48 kb/s (default)
    Metadata:
      encoder         : Lavc57.65.100 libfdk_aac
Stream mapping:
  Stream #0:0 -> #0:0 (mpeg4 (native) -> h264 (libx264))
  Stream #0:1 -> #0:1 (mp3 (native) -> aac (libfdk_aac))
Press [q] to stop, [?] for help
frame=  156 fps=0.0 q=32.0 size=     122kB time=00:00:06.67 bitrate= 149.1kbits/s dup=1 drop=0 speed=13.3x    frame=  287 fps=286 q=32.0 size=     287kB time=00:00:12.13 bitrate= 193.9kbits/s dup=1 drop=0 speed=12.1x    frame=  377 fps=251 q=32.0 size=     451kB time=00:00:15.89 bitrate= 232.4kbits/s dup=1 drop=0 speed=10.6x    frame=  490 fps=244 q=32.0 size=     625kB time=00:00:20.58 bitrate= 248.8kbits/s dup=1 drop=0 speed=10.3x    frame=  584 fps=232 q=32.0 size=     771kB time=00:00:24.51 bitrate= 257.5kbits/s dup=1 drop=0 speed=9.75x    frame=  670 fps=222 q=32.0 size=     985kB time=00:00:28.09 bitrate= 287.2kbits/s dup=1 drop=0 speed=9.32x    frame=  742 fps=211 q=32.0 size=    1123kB time=00:00:31.08 bitrate= 295.8kbits/s dup=1 drop=0 speed=8.82x    frame=  776 fps=193 q=32.0 size=    1263kB time=00:00:32.53 bitrate= 318.1kbits/s dup=1 drop=0 speed=8.08x    frame=  809 fps=178 q=32.0 size=    1409kB time=00:00:33.89 bitrate= 340.5kbits/s dup=1 drop=0 speed=7.47x    frame=  857 fps=169 q=32.0 size=    1619kB time=00:00:35.90 bitrate= 369.3kbits/s dup=1 drop=0 speed=7.09x    frame=  899 fps=162 q=32.0 size=    1821kB time=00:00:37.69 bitrate= 395.8kbits/s dup=1 drop=0 speed=6.78x    frame=  953 fps=157 q=32.0 size=    1992kB time=00:00:39.91 bitrate= 408.8kbits/s dup=1 drop=0 speed=6.58x    frame= 1036 fps=157 q=32.0 size=    2172kB time=00:00:43.37 bitrate= 410.3kbits/s dup=1 drop=0 speed=6.59x    frame= 1111 fps=157 q=32.0 size=    2357kB time=00:00:46.48 bitrate= 415.4kbits/s dup=1 drop=0 speed=6.55x    frame= 1182 fps=156 q=32.0 size=    2555kB time=00:00:49.47 bitrate= 423.0kbits/s dup=1 drop=0 speed=6.51x    frame= 1228 fps=152 q=32.0 size=    2808kB time=00:00:51.39 bitrate= 447.5kbits/s dup=1 drop=0 speed=6.35x    frame= 1310 fps=152 q=32.0 size=    2952kB time=00:00:54.76 bitrate= 441.5kbits/s dup=1 drop=0 speed=6.37x    frame= 1372 fps=150 q=32.0 size=    3194kB time=00:00:57.36 bitrate= 456.2kbits/s dup=1 drop=0 speed=6.27x    frame= 1441 fps=149 q=32.0 size=    3381kB time=00:01:00.26 bitrate= 459.6kbits/s dup=1 drop=0 speed=6.25x    frame= 1497 fps=148 q=32.0 size=    3587kB time=00:01:02.57 bitrate= 469.6kbits/s dup=1 drop=0 speed=6.17x    frame= 1572 fps=148 q=32.0 size=    3776kB time=00:01:05.72 bitrate= 470.6kbits/s dup=1 drop=0 speed=6.17x    frame= 1631 fps=146 q=32.0 size=    3895kB time=00:01:08.20 bitrate= 467.8kbits/s dup=1 drop=0 speed=6.09x    frame= 1683 fps=144 q=32.0 size=    4027kB time=00:01:10.33 bitrate= 469.0kbits/s dup=1 drop=0 speed=6.01x    frame= 1739 fps=142 q=32.0 size=    4189kB time=00:01:12.68 bitrate= 472.2kbits/s dup=1 drop=0 speed=5.94x    frame= 1784 fps=140 q=32.0 size=    4357kB time=00:01:14.56 bitrate= 478.7kbits/s dup=1 drop=0 speed=5.84x    frame= 1819 fps=137 q=32.0 size=    4526kB time=00:01:16.01 bitrate= 487.8kbits/s dup=1 drop=0 speed=5.72x    frame= 1857 fps=135 q=32.0 size=    4691kB time=00:01:17.63 bitrate= 495.0kbits/s dup=1 drop=0 speed=5.63x    frame= 1909 fps=133 q=32.0 size=    4838kB time=00:01:19.76 bitrate= 496.8kbits/s dup=1 drop=0 speed=5.57x    frame= 1969 fps=133 q=32.0 size=    4998kB time=00:01:22.28 bitrate= 497.6kbits/s dup=1 drop=0 speed=5.55x    frame= 2032 fps=132 q=32.0 size=    5127kB time=00:01:24.92 bitrate= 494.5kbits/s dup=1 drop=0 speed=5.53x    frame= 2096 fps=132 q=32.0 size=    5223kB time=00:01:27.57 bitrate= 488.6kbits/s dup=1 drop=0 speed=5.52x    frame= 2154 fps=132 q=32.0 size=    5331kB time=00:01:30.00 bitrate= 485.2kbits/s dup=1 drop=0 speed= 5.5x    frame= 2298 fps=136 q=32.0 size=    5433kB time=00:01:35.97 bitrate= 463.7kbits/s dup=1 drop=0 speed=5.69x    frame= 2387 fps=134 q=32.0 size=    5525kB time=00:01:39.73 bitrate= 453.8kbits/s dup=1 drop=0 speed=5.62x    frame= 2436 fps=133 q=32.0 size=    5541kB time=00:01:41.78 bitrate= 446.0kbits/s dup=1 drop=0 speed=5.58x    frame= 2498 fps=133 q=32.0 size=    5680kB time=00:01:44.34 bitrate= 445.9kbits/s dup=1 drop=0 speed=5.56x    frame= 2538 fps=132 q=32.0 size=    5792kB time=00:01:46.00 bitrate= 447.6kbits/s dup=1 drop=0 speed= 5.5x    frame= 2583 fps=131 q=32.0 size=    5911kB time=00:01:47.88 bitrate= 448.8kbits/s dup=1 drop=0 speed=5.45x    frame= 2629 fps=130 q=32.0 size=    6001kB time=00:01:49.80 bitrate= 447.7kbits/s dup=1 drop=0 speed=5.41x    frame= 2679 fps=129 q=32.0 size=    6098kB time=00:01:51.89 bitrate= 446.5kbits/s dup=1 drop=0 speed=5.37x    frame= 2755 fps=129 q=32.0 size=    6201kB time=00:01:55.05 bitrate= 441.5kbits/s dup=1 drop=0 speed=5.39x    frame= 2834 fps=130 q=32.0 size=    6309kB time=00:01:58.37 bitrate= 436.6kbits/s dup=1 drop=0 speed=5.42x    frame= 2923 fps=131 q=32.0 size=    6411kB time=00:02:02.04 bitrate= 430.3kbits/s dup=1 drop=0 speed=5.46x    frame= 2994 fps=131 q=32.0 size=    6525kB time=00:02:05.03 bitrate= 427.5kbits/s dup=1 drop=0 speed=5.47x    frame= 3051 fps=131 q=32.0 size=    6629kB time=00:02:07.42 bitrate= 426.2kbits/s dup=1 drop=0 speed=5.45x    frame= 3127 fps=131 q=32.0 size=    6713kB time=00:02:10.62 bitrate= 421.0kbits/s dup=1 drop=0 speed=5.47x    frame= 3195 fps=131 q=32.0 size=    6829kB time=00:02:13.39 bitrate= 419.4kbits/s dup=1 drop=0 speed=5.47x    frame= 3256 fps=131 q=32.0 size=    6951kB time=00:02:15.95 bitrate= 418.8kbits/s dup=1 drop=0 speed=5.46x    frame= 3331 fps=131 q=32.0 size=    7027kB time=00:02:19.07 bitrate= 413.9kbits/s dup=1 drop=0 speed=5.47x    frame= 3396 fps=131 q=32.0 size=    7111kB time=00:02:21.80 bitrate= 410.8kbits/s dup=1 drop=0 speed=5.47x    frame= 3463 fps=131 q=32.0 size=    7221kB time=00:02:24.61 bitrate= 409.0kbits/s dup=1 drop=0 speed=5.47x    frame= 3519 fps=131 q=32.0 size=    7361kB time=00:02:26.92 bitrate= 410.4kbits/s dup=1 drop=0 speed=5.45x    frame= 3584 fps=131 q=32.0 size=    7515kB time=00:02:29.65 bitrate= 411.4kbits/s dup=1 drop=0 speed=5.45x    frame= 3647 fps=130 q=32.0 size=    7632kB time=00:02:32.29 bitrate= 410.5kbits/s dup=1 drop=0 speed=5.45x    frame= 3721 fps=131 q=32.0 size=    7727kB time=00:02:35.37 bitrate= 407.4kbits/s dup=1 drop=0 speed=5.46x    frame= 3777 fps=130 q=32.0 size=    7836kB time=00:02:37.67 bitrate= 407.1kbits/s dup=1 drop=0 speed=5.45x    frame= 3809 fps=129 q=32.0 size=    7946kB time=00:02:39.04 bitrate= 409.3kbits/s dup=1 drop=0 speed= 5.4x    frame= 3841 fps=128 q=32.0 size=    8062kB time=00:02:40.36 bitrate= 411.8kbits/s dup=1 drop=0 speed=5.35x    frame= 3880 fps=127 q=32.0 size=    8186kB time=00:02:41.98 bitrate= 414.0kbits/s dup=1 drop=0 speed=5.32x    frame= 3919 fps=127 q=32.0 size=    8277kB time=00:02:43.60 bitrate= 414.5kbits/s dup=1 drop=0 speed=5.28x    frame= 3962 fps=126 q=32.0 size=    8385kB time=00:02:45.39 bitrate= 415.3kbits/s dup=1 drop=0 speed=5.25x    frame= 4046 fps=126 q=32.0 size=    8497kB time=00:02:48.89 bitrate= 412.1kbits/s dup=1 drop=0 speed=5.28x    frame= 4120 fps=127 q=32.0 size=    8549kB time=00:02:52.01 bitrate= 407.2kbits/s dup=1 drop=0 speed=5.29x    frame= 4194 fps=127 q=32.0 size=    8674kB time=00:02:55.08 bitrate= 405.8kbits/s dup=1 drop=0 speed= 5.3x    frame= 4292 fps=128 q=32.0 size=    8779kB time=00:02:59.17 bitrate= 401.4kbits/s dup=1 drop=0 speed=5.34x    frame= 4417 fps=130 q=32.0 size=    8878kB time=00:03:04.38 bitrate= 394.4kbits/s dup=1 drop=0 speed=5.42x    frame= 4499 fps=130 q=32.0 size=    8960kB time=00:03:07.79 bitrate= 390.9kbits/s dup=1 drop=0 speed=5.44x    frame= 4571 fps=130 q=32.0 size=    9067kB time=00:03:10.78 bitrate= 389.3kbits/s dup=1 drop=0 speed=5.44x    frame= 4642 fps=130 q=32.0 size=    9166kB time=00:03:13.77 bitrate= 387.5kbits/s dup=1 drop=0 speed=5.45x    frame= 4731 fps=131 q=32.0 size=    9264kB time=00:03:17.48 bitrate= 384.3kbits/s dup=1 drop=0 speed=5.47x    frame= 4824 fps=132 q=32.0 size=    9354kB time=00:03:21.36 bitrate= 380.5kbits/s dup=1 drop=0 speed= 5.5x    frame= 4912 fps=132 q=32.0 size=    9468kB time=00:03:25.03 bitrate= 378.3kbits/s dup=1 drop=0 speed=5.52x    frame= 5019 fps=133 q=32.0 size=    9540kB time=00:03:29.51 bitrate= 373.0kbits/s dup=1 drop=0 speed=5.56x    frame= 5113 fps=134 q=32.0 size=    9638kB time=00:03:33.39 bitrate= 370.0kbits/s dup=1 drop=0 speed=5.59x    frame= 5204 fps=135 q=32.0 size=    9732kB time=00:03:37.19 bitrate= 367.1kbits/s dup=1 drop=0 speed=5.62x    frame= 5275 fps=135 q=32.0 size=    9849kB time=00:03:40.18 bitrate= 366.4kbits/s dup=1 drop=0 speed=5.62x    frame= 5363 fps=135 q=32.0 size=    9965kB time=00:03:43.85 bitrate= 364.7kbits/s dup=1 drop=0 speed=5.64x    frame= 5445 fps=135 q=32.0 size=   10045kB time=00:03:47.26 bitrate= 362.1kbits/s dup=1 drop=0 speed=5.65x    frame= 5542 fps=136 q=32.0 size=   10151kB time=00:03:51.31 bitrate= 359.5kbits/s dup=1 drop=0 speed=5.68x    frame= 5633 fps=137 q=32.0 size=   10239kB time=00:03:55.11 bitrate= 356.7kbits/s dup=1 drop=0 speed= 5.7x    frame= 5733 fps=137 q=32.0 size=   10346kB time=00:03:59.29 bitrate= 354.2kbits/s dup=1 drop=0 speed=5.74x    frame= 5806 fps=137 q=32.0 size=   10448kB time=00:04:02.32 bitrate= 353.2kbits/s dup=1 drop=0 speed=5.73x    frame= 5894 fps=138 q=32.0 size=   10555kB time=00:04:05.99 bitrate= 351.5kbits/s dup=1 drop=0 speed=5.75x    frame= 5966 fps=138 q=32.0 size=   10662kB time=00:04:08.98 bitrate= 350.8kbits/s dup=1 drop=0 speed=5.75x    frame= 6018 fps=137 q=32.0 size=   10765kB time=00:04:11.15 bitrate= 351.1kbits/s dup=1 drop=0 speed=5.73x    frame= 6063 fps=137 q=32.0 size=   10852kB time=00:04:13.03 bitrate= 351.3kbits/s dup=1 drop=0 speed=5.71x    frame= 6108 fps=136 q=32.0 size=   10939kB time=00:04:14.91 bitrate= 351.5kbits/s dup=1 drop=0 speed=5.69x    frame= 6175 fps=136 q=32.0 size=   11041kB time=00:04:17.72 bitrate= 350.9kbits/s dup=1 drop=0 speed=5.69x    frame= 6265 fps=137 q=32.0 size=   11164kB time=00:04:21.44 bitrate= 349.8kbits/s dup=1 drop=0 speed= 5.7x    frame= 6359 fps=137 q=32.0 size=   11236kB time=00:04:25.40 bitrate= 346.8kbits/s dup=1 drop=0 speed=5.73x    frame= 6426 fps=137 q=32.0 size=   11344kB time=00:04:28.18 bitrate= 346.5kbits/s dup=1 drop=0 speed=5.73x    frame= 6550 fps=138 q=32.0 size=   11428kB time=00:04:33.34 bitrate= 342.5kbits/s dup=1 drop=0 speed=5.77x    frame= 6658 fps=139 q=32.0 size=   11525kB time=00:04:37.82 bitrate= 339.8kbits/s dup=1 drop=0 speed=5.81x    frame= 6749 fps=140 q=32.0 size=   11581kB time=00:04:41.62 bitrate= 336.9kbits/s dup=1 drop=0 speed=5.82x    frame= 6807 fps=139 q=32.0 size=   11687kB time=00:04:44.05 bitrate= 337.0kbits/s dup=1 drop=0 speed=5.81x    frame= 6868 fps=139 q=32.0 size=   11779kB time=00:04:46.61 bitrate= 336.7kbits/s dup=1 drop=0 speed=5.81x    frame= 6938 fps=139 q=32.0 size=   11840kB time=00:04:49.51 bitrate= 335.0kbits/s dup=1 drop=0 speed= 5.8x    frame= 6998 fps=139 q=32.0 size=   11935kB time=00:04:52.03 bitrate= 334.8kbits/s dup=1 drop=0 speed=5.79x    frame= 7038 fps=138 q=32.0 size=   12042kB time=00:04:53.69 bitrate= 335.9kbits/s dup=1 drop=0 speed=5.77x    frame= 7103 fps=138 q=32.0 size=   12225kB time=00:04:56.42 bitrate= 337.8kbits/s dup=1 drop=0 speed=5.76x    frame= 7172 fps=138 q=32.0 size=   12323kB time=00:04:59.28 bitrate= 337.3kbits/s dup=1 drop=0 speed=5.76x    frame= 7235 fps=138 q=32.0 size=   12414kB time=00:05:01.93 bitrate= 336.8kbits/s dup=1 drop=0 speed=5.76x    frame= 7323 fps=138 q=32.0 size=   12512kB time=00:05:05.60 bitrate= 335.4kbits/s dup=1 drop=0 speed=5.77x    frame= 7407 fps=139 q=32.0 size=   12578kB time=00:05:09.09 bitrate= 333.4kbits/s dup=1 drop=0 speed=5.78x    frame= 7471 fps=138 q=32.0 size=   12675kB time=00:05:11.74 bitrate= 333.1kbits/s dup=1 drop=0 speed=5.78x    frame= 7563 fps=139 q=32.0 size=   12767kB time=00:05:15.58 bitrate= 331.4kbits/s dup=1 drop=0 speed=5.79x    frame= 7649 fps=139 q=32.0 size=   12841kB time=00:05:19.16 bitrate= 329.6kbits/s dup=1 drop=0 speed=5.81x    frame= 7726 fps=139 q=32.0 size=   12910kB time=00:05:22.41 bitrate= 328.0kbits/s dup=1 drop=0 speed=5.81x    frame= 7819 fps=140 q=32.0 size=   13020kB time=00:05:26.29 bitrate= 326.9kbits/s dup=1 drop=0 speed=5.83x    frame= 7909 fps=140 q=32.0 size=   13103kB time=00:05:30.00 bitrate= 325.3kbits/s dup=1 drop=0 speed=5.84x    frame= 7993 fps=140 q=32.0 size=   13198kB time=00:05:33.54 bitrate= 324.1kbits/s dup=1 drop=0 speed=5.85x    frame= 8071 fps=140 q=32.0 size=   13270kB time=00:05:36.79 bitrate= 322.8kbits/s dup=1 drop=0 speed=5.86x    frame= 8123 fps=140 q=32.0 size=   13367kB time=00:05:38.96 bitrate= 323.1kbits/s dup=1 drop=0 speed=5.84x    frame= 8171 fps=140 q=32.0 size=   13443kB time=00:05:40.97 bitrate= 323.0kbits/s dup=1 drop=0 speed=5.82x    frame= 8220 fps=139 q=32.0 size=   13523kB time=00:05:43.01 bitrate= 322.9kbits/s dup=1 drop=0 speed= 5.8x    frame= 8273 fps=139 q=32.0 size=   13597kB time=00:05:45.19 bitrate= 322.7kbits/s dup=1 drop=0 speed=5.79x    frame= 8324 fps=138 q=32.0 size=   13702kB time=00:05:47.32 bitrate= 323.2kbits/s dup=1 drop=0 speed=5.78x    frame= 8398 fps=139 q=32.0 size=   13785kB time=00:05:50.40 bitrate= 322.3kbits/s dup=1 drop=0 speed=5.78x    frame= 8502 fps=139 q=32.0 size=   13880kB time=00:05:54.79 bitrate= 320.5kbits/s dup=1 drop=0 speed=5.81x    frame= 8591 fps=139 q=32.0 size=   13957kB time=00:05:58.50 bitrate= 318.9kbits/s dup=1 drop=0 speed=5.82x    frame= 8679 fps=140 q=32.0 size=   14028kB time=00:06:02.13 bitrate= 317.3kbits/s dup=1 drop=0 speed=5.83x    frame= 8765 fps=140 q=32.0 size=   14139kB time=00:06:05.71 bitrate= 316.7kbits/s dup=1 drop=0 speed=5.84x    frame= 8830 fps=140 q=32.0 size=   14222kB time=00:06:08.44 bitrate= 316.2kbits/s dup=1 drop=0 speed=5.84x    frame= 8883 fps=140 q=32.0 size=   14309kB time=00:06:10.66 bitrate= 316.2kbits/s dup=1 drop=0 speed=5.82x    frame= 8942 fps=139 q=32.0 size=   14413kB time=00:06:13.09 bitrate= 316.5kbits/s dup=1 drop=0 speed=5.82x    frame= 9009 fps=139 q=32.0 size=   14482kB time=00:06:15.91 bitrate= 315.6kbits/s dup=1 drop=0 speed=5.81x    frame= 9071 fps=139 q=32.0 size=   14600kB time=00:06:18.51 bitrate= 316.0kbits/s dup=1 drop=0 speed=5.81x    frame= 9150 fps=139 q=32.0 size=   14686kB time=00:06:21.80 bitrate= 315.1kbits/s dup=1 drop=0 speed=5.81x    frame= 9229 fps=139 q=32.0 size=   14791kB time=00:06:25.08 bitrate= 314.7kbits/s dup=1 drop=0 speed=5.82x    frame= 9305 fps=139 q=32.0 size=   14873kB time=00:06:28.24 bitrate= 313.8kbits/s dup=1 drop=0 speed=5.82x    frame= 9364 fps=139 q=32.0 size=   14931kB time=00:06:30.72 bitrate= 313.1kbits/s dup=1 drop=0 speed=5.81x    frame= 9427 fps=139 q=32.0 size=   15008kB time=00:06:33.32 bitrate= 312.6kbits/s dup=1 drop=0 speed=5.81x    frame= 9477 fps=139 q=32.0 size=   15082kB time=00:06:35.41 bitrate= 312.5kbits/s dup=1 drop=0 speed= 5.8x    frame= 9535 fps=139 q=32.0 size=   15159kB time=00:06:37.84 bitrate= 312.1kbits/s dup=1 drop=0 speed=5.79x    frame= 9588 fps=139 q=32.0 size=   15226kB time=00:06:40.06 bitrate= 311.8kbits/s dup=1 drop=0 speed=5.78x    frame= 9654 fps=138 q=32.0 size=   15343kB time=00:06:42.79 bitrate= 312.0kbits/s dup=1 drop=0 speed=5.78x    frame= 9711 fps=138 q=32.0 size=   15419kB time=00:06:45.18 bitrate= 311.7kbits/s dup=1 drop=0 speed=5.77x    frame= 9765 fps=138 q=32.0 size=   15484kB time=00:06:47.44 bitrate= 311.3kbits/s dup=1 drop=0 speed=5.76x    frame= 9821 fps=138 q=32.0 size=   15556kB time=00:06:49.79 bitrate= 311.0kbits/s dup=1 drop=0 speed=5.75x    frame= 9878 fps=138 q=32.0 size=   15644kB time=00:06:52.13 bitrate= 311.0kbits/s dup=1 drop=0 speed=5.74x    frame= 9952 fps=138 q=32.0 size=   15743kB time=00:06:55.25 bitrate= 310.6kbits/s dup=1 drop=0 speed=5.75x    frame=10056 fps=138 q=32.0 size=   15844kB time=00:06:59.56 bitrate= 309.3kbits/s dup=1 drop=0 speed=5.77x    frame=10166 fps=139 q=32.0 size=   15947kB time=00:07:04.17 bitrate= 308.0kbits/s dup=1 drop=0 speed=5.79x    frame=10280 fps=139 q=32.0 size=   16015kB time=00:07:08.90 bitrate= 305.9kbits/s dup=1 drop=0 speed=5.81x    frame=10369 fps=140 q=32.0 size=   16114kB time=00:07:12.61 bitrate= 305.1kbits/s dup=1 drop=0 speed=5.82x    frame=10427 fps=139 q=32.0 size=   16214kB time=00:07:15.05 bitrate= 305.3kbits/s dup=1 drop=0 speed=5.82x    frame=10475 fps=139 q=32.0 size=   16293kB time=00:07:17.05 bitrate= 305.4kbits/s dup=1 drop=0 speed=5.81x    frame=10541 fps=139 q=32.0 size=   16411kB time=00:07:19.78 bitrate= 305.7kbits/s dup=1 drop=0 speed= 5.8x    frame=10633 fps=139 q=32.0 size=   16481kB time=00:07:23.62 bitrate= 304.3kbits/s dup=1 drop=0 speed=5.82x    frame=10719 fps=140 q=32.0 size=   16592kB time=00:07:27.25 bitrate= 303.9kbits/s dup=1 drop=0 speed=5.82x    frame=10810 fps=140 q=32.0 size=   16686kB time=00:07:31.00 bitrate= 303.1kbits/s dup=1 drop=0 speed=5.84x    frame=10892 fps=140 q=32.0 size=   16760kB time=00:07:34.42 bitrate= 302.1kbits/s dup=1 drop=0 speed=5.84x    frame=10960 fps=140 q=32.0 size=   16848kB time=00:07:37.28 bitrate= 301.8kbits/s dup=1 drop=0 speed=5.84x    frame=11049 fps=140 q=32.0 size=   16956kB time=00:07:40.99 bitrate= 301.3kbits/s dup=1 drop=0 speed=5.85x    frame=11134 fps=140 q=32.0 size=   17025kB time=00:07:44.53 bitrate= 300.2kbits/s dup=1 drop=0 speed=5.86x    frame=11187 fps=140 q=32.0 size=   17146kB time=00:07:46.75 bitrate= 300.9kbits/s dup=1 drop=0 speed=5.85x    frame=11290 fps=141 q=32.0 size=   17248kB time=00:07:51.06 bitrate= 300.0kbits/s dup=1 drop=0 speed=5.86x    frame=11388 fps=141 q=32.0 size=   17338kB time=00:07:55.11 bitrate= 298.9kbits/s dup=1 drop=0 speed=5.88x    frame=11461 fps=141 q=32.0 size=   17438kB time=00:07:58.14 bitrate= 298.8kbits/s dup=1 drop=0 speed=5.88x    frame=11524 fps=141 q=32.0 size=   17556kB time=00:08:00.79 bitrate= 299.1kbits/s dup=1 drop=0 speed=5.87x    frame=11569 fps=140 q=32.0 size=   17673kB time=00:08:02.66 bitrate= 299.9kbits/s dup=1 drop=0 speed=5.86x    frame=11682 fps=141 q=32.0 size=   17794kB time=00:08:07.40 bitrate= 299.1kbits/s dup=1 drop=0 speed=5.88x    frame=11785 fps=141 q=32.0 size=   17860kB time=00:08:11.67 bitrate= 297.6kbits/s dup=1 drop=0 speed= 5.9x    frame=11844 fps=141 q=32.0 size=   18022kB time=00:08:14.14 bitrate= 298.8kbits/s dup=1 drop=0 speed=5.89x    frame=11951 fps=142 q=32.0 size=   18143kB time=00:08:18.62 bitrate= 298.1kbits/s dup=1 drop=0 speed=5.91x    frame=12052 fps=142 q=32.0 size=   18221kB time=00:08:22.80 bitrate= 296.9kbits/s dup=1 drop=0 speed=5.92x    frame=12129 fps=142 q=32.0 size=   18352kB time=00:08:26.04 bitrate= 297.1kbits/s dup=1 drop=0 speed=5.92x    frame=12205 fps=142 q=32.0 size=   18443kB time=00:08:29.20 bitrate= 296.7kbits/s dup=1 drop=0 speed=5.92x    frame=12279 fps=142 q=32.0 size=   18549kB time=00:08:32.27 bitrate= 296.6kbits/s dup=1 drop=0 speed=5.92x    frame=12363 fps=142 q=32.0 size=   18646kB time=00:08:35.81 bitrate= 296.1kbits/s dup=1 drop=0 speed=5.92x    frame=12448 fps=142 q=32.0 size=   18740kB time=00:08:39.31 bitrate= 295.6kbits/s dup=1 drop=0 speed=5.93x    frame=12516 fps=142 q=32.0 size=   18868kB time=00:08:42.17 bitrate= 296.0kbits/s dup=1 drop=0 speed=5.93x    frame=12598 fps=142 q=32.0 size=   18949kB time=00:08:45.59 bitrate= 295.3kbits/s dup=1 drop=0 speed=5.93x    frame=12679 fps=142 q=32.0 size=   19052kB time=00:08:49.00 bitrate= 295.0kbits/s dup=1 drop=0 speed=5.94x    frame=12762 fps=142 q=32.0 size=   19149kB time=00:08:52.45 bitrate= 294.6kbits/s dup=1 drop=0 speed=5.94x    frame=12854 fps=143 q=32.0 size=   19261kB time=00:08:56.25 bitrate= 294.2kbits/s dup=1 drop=0 speed=5.95x    frame=12946 fps=143 q=32.0 size=   19351kB time=00:09:00.13 bitrate= 293.5kbits/s dup=1 drop=0 speed=5.96x    frame=13018 fps=143 q=32.0 size=   19463kB time=00:09:03.12 bitrate= 293.6kbits/s dup=1 drop=0 speed=5.96x    frame=13119 fps=143 q=32.0 size=   19553kB time=00:09:07.30 bitrate= 292.7kbits/s dup=1 drop=0 speed=5.97x    frame=13224 fps=143 q=32.0 size=   19628kB time=00:09:11.70 bitrate= 291.4kbits/s dup=1 drop=0 speed=5.99x    frame=13312 fps=144 q=32.0 size=   19736kB time=00:09:15.37 bitrate= 291.1kbits/s dup=1 drop=0 speed=5.99x    frame=13398 fps=144 q=32.0 size=   19816kB time=00:09:18.95 bitrate= 290.4kbits/s dup=1 drop=0 speed=   6x    frame=13450 fps=144 q=32.0 size=   19945kB time=00:09:21.13 bitrate= 291.2kbits/s dup=1 drop=0 speed=5.99x    frame=13543 fps=144 q=32.0 size=   20039kB time=00:09:25.01 bitrate= 290.5kbits/s dup=1 drop=0 speed=   6x    frame=13617 fps=144 q=32.0 size=   20132kB time=00:09:28.08 bitrate= 290.3kbits/s dup=1 drop=0 speed=   6x    frame=13675 fps=144 q=32.0 size=   20268kB time=00:09:30.51 bitrate= 291.0kbits/s dup=1 drop=0 speed=5.99x    frame=13715 fps=143 q=32.0 size=   20364kB time=00:09:32.18 bitrate= 291.6kbits/s dup=1 drop=0 speed=5.98x    frame=13760 fps=143 q=32.0 size=   20461kB time=00:09:34.05 bitrate= 292.0kbits/s dup=1 drop=0 speed=5.97x    frame=13829 fps=143 q=32.0 size=   20580kB time=00:09:36.91 bitrate= 292.2kbits/s dup=1 drop=0 speed=5.97x    frame=13919 fps=143 q=32.0 size=   20719kB time=00:09:40.71 bitrate= 292.3kbits/s dup=1 drop=0 speed=5.97x    frame=14005 fps=143 q=32.0 size=   20835kB time=00:09:44.29 bitrate= 292.1kbits/s dup=1 drop=0 speed=5.98x    frame=14083 fps=143 q=32.0 size=   20925kB time=00:09:47.54 bitrate= 291.7kbits/s dup=1 drop=0 speed=5.98x    frame=14156 fps=143 q=32.0 size=   21049kB time=00:09:50.57 bitrate= 292.0kbits/s dup=1 drop=0 speed=5.98x    frame=14230 fps=143 q=32.0 size=   21113kB time=00:09:53.64 bitrate= 291.4kbits/s dup=1 drop=0 speed=5.98x    frame=14283 fps=143 q=32.0 size=   21229kB time=00:09:55.86 bitrate= 291.9kbits/s dup=1 drop=0 speed=5.97x    frame=14370 fps=143 q=32.0 size=   21329kB time=00:09:59.53 bitrate= 291.4kbits/s dup=1 drop=0 speed=5.98x    frame=14437 fps=143 q=32.0 size=   21422kB time=00:10:02.30 bitrate= 291.4kbits/s dup=1 drop=0 speed=5.98x    frame=14517 fps=143 q=32.0 size=   21512kB time=00:10:05.63 bitrate= 291.0kbits/s dup=1 drop=0 speed=5.98x    frame=14605 fps=143 q=32.0 size=   21619kB time=00:10:09.30 bitrate= 290.7kbits/s dup=1 drop=0 speed=5.99x    frame=14674 fps=143 q=32.0 size=   21760kB time=00:10:12.20 bitrate= 291.2kbits/s dup=1 drop=0 speed=5.99x    frame=14781 fps=144 q=32.0 size=   21846kB time=00:10:16.64 bitrate= 290.2kbits/s dup=1 drop=0 speed=   6x    frame=14879 fps=144 q=32.0 size=   21924kB time=00:10:20.73 bitrate= 289.3kbits/s dup=1 drop=0 speed=6.01x    frame=14950 fps=144 q=32.0 size=   22056kB time=00:10:23.68 bitrate= 289.7kbits/s dup=1 drop=0 speed=6.01x    frame=15037 fps=144 q=32.0 size=   22132kB time=00:10:27.35 bitrate= 289.0kbits/s dup=1 drop=0 speed=6.01x    frame=15112 fps=144 q=32.0 size=   22230kB time=00:10:30.46 bitrate= 288.8kbits/s dup=1 drop=0 speed=6.01x    frame=15196 fps=144 q=32.0 size=   22311kB time=00:10:33.96 bitrate= 288.3kbits/s dup=1 drop=0 speed=6.02x    frame=15295 fps=145 q=32.0 size=   22386kB time=00:10:38.10 bitrate= 287.4kbits/s dup=1 drop=0 speed=6.03x    frame=15364 fps=145 q=32.0 size=   22461kB time=00:10:40.96 bitrate= 287.1kbits/s dup=1 drop=0 speed=6.03x    frame=15423 fps=144 q=32.0 size=   22556kB time=00:10:43.43 bitrate= 287.2kbits/s dup=1 drop=0 speed=6.02x    frame=15501 fps=144 q=32.0 size=   22674kB time=00:10:46.72 bitrate= 287.2kbits/s dup=1 drop=0 speed=6.03x    frame=15593 fps=145 q=32.0 size=   22779kB time=00:10:50.56 bitrate= 286.8kbits/s dup=1 drop=0 speed=6.03x    frame=15695 fps=145 q=32.0 size=   22881kB time=00:10:54.78 bitrate= 286.3kbits/s dup=1 drop=0 speed=6.04x    frame=15801 fps=145 q=32.0 size=   22957kB time=00:10:59.17 bitrate= 285.3kbits/s dup=1 drop=0 speed=6.06x    frame=15890 fps=145 q=32.0 size=   23057kB time=00:11:02.89 bitrate= 284.9kbits/s dup=1 drop=0 speed=6.06x    frame=15951 fps=145 q=32.0 size=   23161kB time=00:11:05.45 bitrate= 285.1kbits/s dup=1 drop=0 speed=6.06x    frame=16003 fps=145 q=32.0 size=   23258kB time=00:11:07.62 bitrate= 285.4kbits/s dup=1 drop=0 speed=6.05x    frame=16072 fps=145 q=32.0 size=   23374kB time=00:11:10.52 bitrate= 285.6kbits/s dup=1 drop=0 speed=6.05x    frame=16155 fps=145 q=32.0 size=   23455kB time=00:11:13.98 bitrate= 285.1kbits/s dup=1 drop=0 speed=6.05x    frame=16225 fps=145 q=32.0 size=   23544kB time=00:11:16.88 bitrate= 284.9kbits/s dup=1 drop=0 speed=6.05x    frame=16283 fps=145 q=32.0 size=   23656kB time=00:11:19.27 bitrate= 285.3kbits/s dup=1 drop=0 speed=6.04x    frame=16337 fps=145 q=32.0 size=   23739kB time=00:11:21.53 bitrate= 285.3kbits/s dup=1 drop=0 speed=6.03x    frame=16409 fps=145 q=32.0 size=   23853kB time=00:11:24.56 bitrate= 285.4kbits/s dup=1 drop=0 speed=6.03x    frame=16497 fps=145 q=32.0 size=   23943kB time=00:11:28.23 bitrate= 285.0kbits/s dup=1 drop=0 speed=6.04x    frame=16574 fps=145 q=32.0 size=   24071kB time=00:11:31.43 bitrate= 285.2kbits/s dup=1 drop=0 speed=6.04x    frame=16679 fps=145 q=32.0 size=   24160kB time=00:11:35.78 bitrate= 284.5kbits/s dup=1 drop=0 speed=6.05x    frame=16771 fps=145 q=32.0 size=   24255kB time=00:11:39.67 bitrate= 284.0kbits/s dup=1 drop=0 speed=6.06x    frame=16831 fps=145 q=32.0 size=   24348kB time=00:11:42.14 bitrate= 284.1kbits/s dup=1 drop=0 speed=6.05x    frame=16927 fps=145 q=32.0 size=   24455kB time=00:11:46.15 bitrate= 283.7kbits/s dup=1 drop=0 speed=6.06x    frame=16981 fps=145 q=32.0 size=   24533kB time=00:11:48.41 bitrate= 283.7kbits/s dup=1 drop=0 speed=6.05x    frame=17034 fps=145 q=32.0 size=   24611kB time=00:11:50.63 bitrate= 283.7kbits/s dup=1 drop=0 speed=6.05x    frame=17089 fps=145 q=32.0 size=   24698kB time=00:11:52.93 bitrate= 283.8kbits/s dup=1 drop=0 speed=6.04x    frame=17177 fps=145 q=32.0 size=   24800kB time=00:11:56.56 bitrate= 283.5kbits/s dup=1 drop=0 speed=6.05x    frame=17244 fps=145 q=32.0 size=   24907kB time=00:11:59.38 bitrate= 283.6kbits/s dup=1 drop=0 speed=6.04x    frame=17301 fps=145 q=32.0 size=   25007kB time=00:12:01.77 bitrate= 283.8kbits/s dup=1 drop=0 speed=6.04x    frame=17363 fps=145 q=32.0 size=   25101kB time=00:12:04.33 bitrate= 283.9kbits/s dup=1 drop=0 speed=6.03x    frame=17417 fps=145 q=29.0 size=   25168kB time=00:12:06.59 bitrate= 283.8kbits/s dup=1 drop=0 speed=6.03x    frame=17478 fps=144 q=32.0 size=   25270kB time=00:12:09.15 bitrate= 283.9kbits/s dup=1 drop=0 speed=6.02x    frame=17538 fps=144 q=32.0 size=   25434kB time=00:12:11.62 bitrate= 284.8kbits/s dup=1 drop=0 speed=6.02x    frame=17595 fps=144 q=32.0 size=   25534kB time=00:12:14.01 bitrate= 285.0kbits/s dup=1 drop=0 speed=6.01x    frame=17697 fps=144 q=32.0 size=   25610kB time=00:12:18.28 bitrate= 284.2kbits/s dup=1 drop=0 speed=6.02x    frame=17772 fps=144 q=32.0 size=   25691kB time=00:12:21.39 bitrate= 283.9kbits/s dup=1 drop=0 speed=6.02x    frame=17870 fps=145 q=32.0 size=   25789kB time=00:12:25.49 bitrate= 283.4kbits/s dup=1 drop=0 speed=6.03x    frame=17976 fps=145 q=32.0 size=   25910kB time=00:12:29.88 bitrate= 283.1kbits/s dup=1 drop=0 speed=6.04x    frame=18076 fps=145 q=32.0 size=   25987kB time=00:12:34.07 bitrate= 282.3kbits/s dup=1 drop=0 speed=6.05x    frame=18181 fps=145 q=32.0 size=   26067kB time=00:12:38.46 bitrate= 281.5kbits/s dup=1 drop=0 speed=6.06x    frame=18290 fps=146 q=32.0 size=   26182kB time=00:12:42.98 bitrate= 281.1kbits/s dup=1 drop=0 speed=6.07x    frame=18385 fps=146 q=32.0 size=   26280kB time=00:12:46.95 bitrate= 280.7kbits/s dup=1 drop=0 speed=6.08x    frame=18461 fps=146 q=32.0 size=   26387kB time=00:12:50.11 bitrate= 280.7kbits/s dup=1 drop=0 speed=6.08x    frame=18525 fps=146 q=32.0 size=   26488kB time=00:12:52.80 bitrate= 280.8kbits/s dup=1 drop=0 speed=6.08x    frame=18603 fps=146 q=32.0 size=   26554kB time=00:12:56.04 bitrate= 280.3kbits/s dup=1 drop=0 speed=6.08x    frame=18649 fps=145 q=32.0 size=   26650kB time=00:12:57.96 bitrate= 280.6kbits/s dup=1 drop=0 speed=6.07x    frame=18750 fps=146 q=32.0 size=   26764kB time=00:13:02.18 bitrate= 280.3kbits/s dup=1 drop=0 speed=6.08x    frame=18823 fps=146 q=32.0 size=   26836kB time=00:13:05.21 bitrate= 280.0kbits/s dup=1 drop=0 speed=6.08x    frame=18888 fps=146 q=32.0 size=   26921kB time=00:13:07.94 bitrate= 279.9kbits/s dup=1 drop=0 speed=6.07x    frame=18944 fps=145 q=32.0 size=   27017kB time=00:13:10.25 bitrate= 280.1kbits/s dup=1 drop=0 speed=6.07x    frame=19028 fps=146 q=32.0 size=   27118kB time=00:13:13.79 bitrate= 279.9kbits/s dup=1 drop=0 speed=6.07x    frame=19117 fps=146 q=32.0 size=   27218kB time=00:13:17.50 bitrate= 279.6kbits/s dup=1 drop=0 speed=6.08x    frame=19208 fps=146 q=32.0 size=   27317kB time=00:13:21.30 bitrate= 279.3kbits/s dup=1 drop=0 speed=6.08x    frame=19284 fps=146 q=32.0 size=   27439kB time=00:13:24.45 bitrate= 279.4kbits/s dup=1 drop=0 speed=6.08x    frame=19378 fps=146 q=32.0 size=   27541kB time=00:13:28.38 bitrate= 279.1kbits/s dup=1 drop=0 speed=6.09x    frame=19464 fps=146 q=29.0 size=   27627kB time=00:13:31.96 bitrate= 278.7kbits/s dup=1 drop=0 speed=6.09x    frame=19530 fps=146 q=32.0 size=   27773kB time=00:13:34.74 bitrate= 279.3kbits/s dup=1 drop=0 speed=6.09x    frame=19628 fps=146 q=32.0 size=   27836kB time=00:13:38.79 bitrate= 278.5kbits/s dup=1 drop=0 speed= 6.1x    frame=19684 fps=146 q=32.0 size=   27928kB time=00:13:41.14 bitrate= 278.6kbits/s dup=1 drop=0 speed=6.09x    frame=19734 fps=146 q=32.0 size=   28049kB time=00:13:43.23 bitrate= 279.1kbits/s dup=1 drop=0 speed=6.09x    frame=19848 fps=146 q=32.0 size=   28145kB time=00:13:47.96 bitrate= 278.5kbits/s dup=1 drop=0 speed= 6.1x    frame=19958 fps=146 q=32.0 size=   28218kB time=00:13:52.57 bitrate= 277.6kbits/s dup=1 drop=0 speed=6.11x    frame=20028 fps=146 q=32.0 size=   28327kB time=00:13:55.47 bitrate= 277.8kbits/s dup=1 drop=0 speed=6.11x    frame=20123 fps=147 q=32.0 size=   28435kB time=00:13:59.48 bitrate= 277.5kbits/s dup=1 drop=0 speed=6.12x    frame=20215 fps=147 q=32.0 size=   28525kB time=00:14:03.28 bitrate= 277.1kbits/s dup=1 drop=0 speed=6.12x    frame=20294 fps=147 q=32.0 size=   28600kB time=00:14:06.61 bitrate= 276.7kbits/s dup=1 drop=0 speed=6.12x    frame=20375 fps=147 q=32.0 size=   28682kB time=00:14:09.94 bitrate= 276.4kbits/s dup=1 drop=0 speed=6.12x    frame=20436 fps=147 q=32.0 size=   28796kB time=00:14:12.45 bitrate= 276.7kbits/s dup=1 drop=0 speed=6.12x    frame=20499 fps=147 q=32.0 size=   28897kB time=00:14:15.14 bitrate= 276.8kbits/s dup=1 drop=0 speed=6.12x    frame=20548 fps=146 q=32.0 size=   29029kB time=00:14:17.19 bitrate= 277.4kbits/s dup=1 drop=0 speed=6.11x    frame=20627 fps=146 q=32.0 size=   29164kB time=00:14:20.48 bitrate= 277.7kbits/s dup=1 drop=0 speed=6.11x    frame=20708 fps=146 q=32.0 size=   29261kB time=00:14:23.85 bitrate= 277.5kbits/s dup=1 drop=0 speed=6.11x    frame=20817 fps=147 q=32.0 size=   29349kB time=00:14:28.37 bitrate= 276.9kbits/s dup=1 drop=0 speed=6.12x    frame=20972 fps=147 q=32.0 size=   29426kB time=00:14:34.85 bitrate= 275.5kbits/s dup=1 drop=0 speed=6.15x    frame=21069 fps=147 q=32.0 size=   29511kB time=00:14:38.91 bitrate= 275.1kbits/s dup=1 drop=0 speed=6.15x    frame=21165 fps=148 q=32.0 size=   29592kB time=00:14:42.92 bitrate= 274.6kbits/s dup=1 drop=0 speed=6.16x    frame=21264 fps=148 q=32.0 size=   29697kB time=00:14:47.01 bitrate= 274.3kbits/s dup=1 drop=0 speed=6.17x    frame=21371 fps=148 q=32.0 size=   29792kB time=00:14:51.49 bitrate= 273.8kbits/s dup=1 drop=0 speed=6.18x    frame=21451 fps=148 q=32.0 size=   29902kB time=00:14:54.82 bitrate= 273.7kbits/s dup=1 drop=0 speed=6.18x    frame=21528 fps=148 q=32.0 size=   29987kB time=00:14:58.07 bitrate= 273.5kbits/s dup=1 drop=0 speed=6.18x    frame=21593 fps=148 q=32.0 size=   30078kB time=00:15:00.75 bitrate= 273.5kbits/s dup=1 drop=0 speed=6.18x    frame=21637 fps=148 q=32.0 size=   30173kB time=00:15:02.59 bitrate= 273.9kbits/s dup=1 drop=0 speed=6.17x    frame=21707 fps=148 q=32.0 size=   30281kB time=00:15:05.53 bitrate= 273.9kbits/s dup=1 drop=0 speed=6.17x    frame=21804 fps=148 q=32.0 size=   30389kB time=00:15:09.59 bitrate= 273.7kbits/s dup=1 drop=0 speed=6.17x    frame=21877 fps=148 q=32.0 size=   30474kB time=00:15:12.61 bitrate= 273.5kbits/s dup=1 drop=0 speed=6.17x    frame=21933 fps=148 q=32.0 size=   30543kB time=00:15:14.96 bitrate= 273.5kbits/s dup=1 drop=0 speed=6.17x    frame=21999 fps=148 q=32.0 size=   30628kB time=00:15:17.69 bitrate= 273.4kbits/s dup=1 drop=0 speed=6.16x    frame=22066 fps=148 q=32.0 size=   30697kB time=00:15:20.51 bitrate= 273.2kbits/s dup=1 drop=0 speed=6.16x    frame=22129 fps=148 q=32.0 size=   30768kB time=00:15:23.11 bitrate= 273.0kbits/s dup=1 drop=0 speed=6.16x    frame=22221 fps=148 q=32.0 size=   30862kB time=00:15:26.95 bitrate= 272.7kbits/s dup=1 drop=0 speed=6.16x    frame=22304 fps=148 q=32.0 size=   30947kB time=00:15:30.41 bitrate= 272.5kbits/s dup=1 drop=0 speed=6.16x    frame=22358 fps=148 q=32.0 size=   31023kB time=00:15:32.67 bitrate= 272.5kbits/s dup=1 drop=0 speed=6.16x    frame=22413 fps=147 q=32.0 size=   31099kB time=00:15:34.93 bitrate= 272.5kbits/s dup=1 drop=0 speed=6.15x    frame=22459 fps=147 q=32.0 size=   31178kB time=00:15:36.89 bitrate= 272.6kbits/s dup=1 drop=0 speed=6.15x    frame=22514 fps=147 q=32.0 size=   31268kB time=00:15:39.20 bitrate= 272.7kbits/s dup=1 drop=0 speed=6.14x    frame=22586 fps=147 q=32.0 size=   31364kB time=00:15:42.18 bitrate= 272.7kbits/s dup=1 drop=0 speed=6.14x    frame=22705 fps=147 q=32.0 size=   31464kB time=00:15:47.13 bitrate= 272.1kbits/s dup=1 drop=0 speed=6.15x    frame=22805 fps=148 q=32.0 size=   31551kB time=00:15:51.31 bitrate= 271.7kbits/s dup=1 drop=0 speed=6.16x    frame=22887 fps=148 q=32.0 size=   31650kB time=00:15:54.73 bitrate= 271.6kbits/s dup=1 drop=0 speed=6.16x    frame=22954 fps=148 q=32.0 size=   31756kB time=00:15:57.54 bitrate= 271.7kbits/s dup=1 drop=0 speed=6.16x    frame=23023 fps=148 q=32.0 size=   31841kB time=00:16:00.40 bitrate= 271.6kbits/s dup=1 drop=0 speed=6.16x    frame=23083 fps=147 q=32.0 size=   31962kB time=00:16:02.92 bitrate= 271.9kbits/s dup=1 drop=0 speed=6.15x    frame=23159 fps=147 q=32.0 size=   32061kB time=00:16:06.08 bitrate= 271.9kbits/s dup=1 drop=0 speed=6.15x    frame=23277 fps=148 q=32.0 size=   32151kB time=00:16:11.03 bitrate= 271.2kbits/s dup=1 drop=0 speed=6.16x    frame=23387 fps=148 q=32.0 size=   32224kB time=00:16:15.59 bitrate= 270.6kbits/s dup=1 drop=0 speed=6.17x    frame=23455 fps=148 q=32.0 size=   32314kB time=00:16:18.41 bitrate= 270.6kbits/s dup=1 drop=0 speed=6.17x    frame=23497 fps=148 q=32.0 size=   32394kB time=00:16:20.20 bitrate= 270.7kbits/s dup=1 drop=0 speed=6.16x    frame=23594 fps=148 q=32.0 size=   32518kB time=00:16:24.21 bitrate= 270.7kbits/s dup=1 drop=0 speed=6.17x    frame=23702 fps=148 q=32.0 size=   32620kB time=00:16:28.73 bitrate= 270.3kbits/s dup=1 drop=0 speed=6.18x    frame=23806 fps=148 q=32.0 size=   32690kB time=00:16:33.04 bitrate= 269.7kbits/s dup=1 drop=0 speed=6.18x    frame=23893 fps=148 q=32.0 size=   32779kB time=00:16:36.67 bitrate= 269.4kbits/s dup=1 drop=0 speed=6.19x    frame=23984 fps=148 q=32.0 size=   32878kB time=00:16:40.47 bitrate= 269.2kbits/s dup=1 drop=0 speed=6.19x    frame=24085 fps=149 q=32.0 size=   32987kB time=00:16:44.69 bitrate= 269.0kbits/s dup=1 drop=0 speed= 6.2x    frame=24178 fps=149 q=32.0 size=   33065kB time=00:16:48.61 bitrate= 268.5kbits/s dup=1 drop=0 speed= 6.2x    frame=24278 fps=149 q=32.0 size=   33171kB time=00:16:52.75 bitrate= 268.3kbits/s dup=1 drop=0 speed=6.21x    frame=24409 fps=149 q=32.0 size=   33249kB time=00:16:58.21 bitrate= 267.5kbits/s dup=1 drop=0 speed=6.22x    frame=24487 fps=149 q=32.0 size=   33334kB time=00:17:01.46 bitrate= 267.3kbits/s dup=1 drop=0 speed=6.22x    frame=24530 fps=149 q=32.0 size=   33460kB time=00:17:03.25 bitrate= 267.9kbits/s dup=1 drop=0 speed=6.21x    frame=24583 fps=149 q=32.0 size=   33574kB time=00:17:05.43 bitrate= 268.2kbits/s dup=1 drop=0 speed=6.21x    frame=24634 fps=149 q=32.0 size=   33643kB time=00:17:07.60 bitrate= 268.2kbits/s dup=1 drop=0 speed= 6.2x    frame=24681 fps=149 q=32.0 size=   33715kB time=00:17:09.56 bitrate= 268.3kbits/s dup=1 drop=0 speed= 6.2x    frame=24736 fps=148 q=32.0 size=   33782kB time=00:17:11.87 bitrate= 268.2kbits/s dup=1 drop=0 speed=6.19x    frame=24796 fps=148 q=32.0 size=   33843kB time=00:17:14.34 bitrate= 268.0kbits/s dup=1 drop=0 speed=6.19x    frame=24859 fps=148 q=29.0 size=   33968kB time=00:17:16.99 bitrate= 268.3kbits/s dup=1 drop=0 speed=6.18x    frame=24968 fps=148 q=32.0 size=   34070kB time=00:17:21.51 bitrate= 268.0kbits/s dup=1 drop=0 speed=6.19x    frame=25067 fps=149 q=32.0 size=   34163kB time=00:17:25.65 bitrate= 267.6kbits/s dup=1 drop=0 speed= 6.2x    frame=25135 fps=149 q=32.0 size=   34261kB time=00:17:28.47 bitrate= 267.7kbits/s dup=1 drop=0 speed= 6.2x    frame=25190 fps=148 q=32.0 size=   34331kB time=00:17:30.77 bitrate= 267.6kbits/s dup=1 drop=0 speed=6.19x    frame=25264 fps=148 q=32.0 size=   34430kB time=00:17:33.88 bitrate= 267.6kbits/s dup=1 drop=0 speed=6.19x    frame=25359 fps=148 q=32.0 size=   34541kB time=00:17:37.85 bitrate= 267.5kbits/s dup=1 drop=0 speed=6.19x    frame=25450 fps=149 q=32.0 size=   34637kB time=00:17:41.65 bitrate= 267.3kbits/s dup=1 drop=0 speed= 6.2x    frame=25537 fps=149 q=32.0 size=   34739kB time=00:17:45.28 bitrate= 267.1kbits/s dup=1 drop=0 speed= 6.2x    frame=25597 fps=149 q=32.0 size=   34813kB time=00:17:47.75 bitrate= 267.1kbits/s dup=1 drop=0 speed= 6.2x    frame=25662 fps=148 q=32.0 size=   34889kB time=00:17:50.48 bitrate= 267.0kbits/s dup=1 drop=0 speed=6.19x    frame=25742 fps=149 q=32.0 size=   34972kB time=00:17:53.81 bitrate= 266.8kbits/s dup=1 drop=0 speed= 6.2x    frame=25840 fps=149 q=32.0 size=   35064kB time=00:17:57.91 bitrate= 266.5kbits/s dup=1 drop=0 speed= 6.2x    frame=25946 fps=149 q=32.0 size=   35162kB time=00:18:02.34 bitrate= 266.1kbits/s dup=1 drop=0 speed=6.21x    frame=26045 fps=149 q=32.0 size=   35230kB time=00:18:06.44 bitrate= 265.6kbits/s dup=1 drop=0 speed=6.21x    frame=26105 fps=149 q=32.0 size=   35302kB time=00:18:08.96 bitrate= 265.6kbits/s dup=1 drop=0 speed=6.21x    frame=26173 fps=149 q=32.0 size=   35390kB time=00:18:11.77 bitrate= 265.5kbits/s dup=1 drop=0 speed=6.21x    frame=26224 fps=149 q=32.0 size=   35468kB time=00:18:13.91 bitrate= 265.6kbits/s dup=1 drop=0 speed= 6.2x    frame=26276 fps=149 q=32.0 size=   35542kB time=00:18:16.08 bitrate= 265.6kbits/s dup=1 drop=0 speed= 6.2x    frame=26332 fps=148 q=32.0 size=   35614kB time=00:18:18.43 bitrate= 265.6kbits/s dup=1 drop=0 speed=6.19x    frame=26422 fps=149 q=32.0 size=   35708kB time=00:18:22.18 bitrate= 265.4kbits/s dup=1 drop=0 speed= 6.2x    frame=26506 fps=149 q=32.0 size=   35797kB time=00:18:25.68 bitrate= 265.2kbits/s dup=1 drop=0 speed= 6.2x    frame=26563 fps=148 q=32.0 size=   35895kB time=00:18:28.07 bitrate= 265.4kbits/s dup=1 drop=0 speed=6.19x    frame=26615 fps=148 q=32.0 size=   35970kB time=00:18:30.20 bitrate= 265.4kbits/s dup=1 drop=0 speed=6.19x    frame=26688 fps=148 q=32.0 size=   36059kB time=00:18:33.28 bitrate= 265.3kbits/s dup=1 drop=0 speed=6.19x    frame=26753 fps=148 q=32.0 size=   36129kB time=00:18:35.96 bitrate= 265.2kbits/s dup=1 drop=0 speed=6.19x    frame=26799 fps=148 q=32.0 size=   36216kB time=00:18:37.88 bitrate= 265.4kbits/s dup=1 drop=0 speed=6.18x    frame=26841 fps=148 q=32.0 size=   36308kB time=00:18:39.63 bitrate= 265.7kbits/s dup=1 drop=0 speed=6.17x    frame=26899 fps=148 q=32.0 size=   36437kB time=00:18:42.07 bitrate= 266.0kbits/s dup=1 drop=0 speed=6.17x    frame=26987 fps=148 q=32.0 size=   36530kB time=00:18:45.73 bitrate= 265.8kbits/s dup=1 drop=0 speed=6.17x    frame=27086 fps=148 q=32.0 size=   36628kB time=00:18:49.87 bitrate= 265.6kbits/s dup=1 drop=0 speed=6.18x    frame=27193 fps=148 q=32.0 size=   36728kB time=00:18:54.31 bitrate= 265.2kbits/s dup=1 drop=0 speed=6.18x    frame=27280 fps=148 q=32.0 size=   36822kB time=00:18:57.94 bitrate= 265.1kbits/s dup=1 drop=0 speed=6.19x    frame=27380 fps=148 q=32.0 size=   36912kB time=00:19:02.12 bitrate= 264.8kbits/s dup=1 drop=0 speed=6.19x    frame=27473 fps=149 q=32.0 size=   36983kB time=00:19:06.00 bitrate= 264.4kbits/s dup=1 drop=0 speed= 6.2x    frame=27570 fps=149 q=32.0 size=   37083kB time=00:19:10.05 bitrate= 264.1kbits/s dup=1 drop=0 speed= 6.2x    frame=27662 fps=149 q=32.0 size=   37159kB time=00:19:13.89 bitrate= 263.8kbits/s dup=1 drop=0 speed=6.21x    frame=27719 fps=149 q=32.0 size=   37255kB time=00:19:16.24 bitrate= 264.0kbits/s dup=1 drop=0 speed= 6.2x    frame=27789 fps=149 q=32.0 size=   37341kB time=00:19:19.19 bitrate= 263.9kbits/s dup=1 drop=0 speed= 6.2x    frame=27879 fps=149 q=32.0 size=   37414kB time=00:19:22.94 bitrate= 263.6kbits/s dup=1 drop=0 speed= 6.2x    frame=27958 fps=149 q=32.0 size=   37511kB time=00:19:26.23 bitrate= 263.5kbits/s dup=1 drop=0 speed= 6.2x    frame=28067 fps=149 q=32.0 size=   37605kB time=00:19:30.79 bitrate= 263.1kbits/s dup=1 drop=0 speed=6.21x    frame=28160 fps=149 q=32.0 size=   37695kB time=00:19:34.63 bitrate= 262.9kbits/s dup=1 drop=0 speed=6.22x    frame=28249 fps=149 q=32.0 size=   37809kB time=00:19:38.39 bitrate= 262.8kbits/s dup=1 drop=0 speed=6.22x    frame=28343 fps=149 q=32.0 size=   37896kB time=00:19:42.27 bitrate= 262.6kbits/s dup=1 drop=0 speed=6.22x    frame=28447 fps=149 q=32.0 size=   37963kB time=00:19:46.62 bitrate= 262.1kbits/s dup=1 drop=0 speed=6.23x    frame=28505 fps=149 q=32.0 size=   38095kB time=00:19:49.09 bitrate= 262.4kbits/s dup=1 drop=0 speed=6.23x    frame=28606 fps=149 q=32.0 size=   38160kB time=00:19:53.28 bitrate= 262.0kbits/s dup=1 drop=0 speed=6.23x    frame=28686 fps=149 q=32.0 size=   38245kB time=00:19:56.60 bitrate= 261.8kbits/s dup=1 drop=0 speed=6.23x    frame=28774 fps=149 q=32.0 size=   38340kB time=00:20:00.27 bitrate= 261.7kbits/s dup=1 drop=0 speed=6.24x    frame=28837 fps=149 q=32.0 size=   38405kB time=00:20:02.92 bitrate= 261.5kbits/s dup=1 drop=0 speed=6.23x    frame=28885 fps=149 q=32.0 size=   38504kB time=00:20:04.88 bitrate= 261.8kbits/s dup=1 drop=0 speed=6.23x    frame=28935 fps=149 q=32.0 size=   38618kB time=00:20:06.97 bitrate= 262.1kbits/s dup=1 drop=0 speed=6.22x    frame=28966 fps=149 q=32.0 size=   38715kB time=00:20:08.25 bitrate= 262.5kbits/s dup=1 drop=0 speed=6.21x    frame=29034 fps=149 q=32.0 size=   38848kB time=00:20:11.11 bitrate= 262.8kbits/s dup=1 drop=0 speed=6.21x    frame=29092 fps=149 q=32.0 size=   38948kB time=00:20:13.50 bitrate= 262.9kbits/s dup=1 drop=0 speed= 6.2x    frame=29149 fps=149 q=32.0 size=   39047kB time=00:20:15.89 bitrate= 263.1kbits/s dup=1 drop=0 speed= 6.2x    frame=29233 fps=149 q=32.0 size=   39158kB time=00:20:19.43 bitrate= 263.1kbits/s dup=1 drop=0 speed= 6.2x    frame=29326 fps=149 q=32.0 size=   39223kB time=00:20:23.31 bitrate= 262.7kbits/s dup=1 drop=0 speed=6.21x    frame=29398 fps=149 q=32.0 size=   39324kB time=00:20:26.34 bitrate= 262.7kbits/s dup=1 drop=0 speed=6.21x    frame=29464 fps=149 q=32.0 size=   39401kB time=00:20:29.07 bitrate= 262.6kbits/s dup=1 drop=0 speed= 6.2x    frame=29535 fps=149 q=32.0 size=   39469kB time=00:20:32.02 bitrate= 262.4kbits/s dup=1 drop=0 speed= 6.2x    frame=29603 fps=149 q=32.0 size=   39541kB time=00:20:34.83 bitrate= 262.3kbits/s dup=1 drop=0 speed= 6.2x    frame=29675 fps=149 q=32.0 size=   39615kB time=00:20:37.86 bitrate= 262.2kbits/s dup=1 drop=0 speed= 6.2x    frame=29756 fps=149 q=32.0 size=   39712kB time=00:20:41.23 bitrate= 262.1kbits/s dup=1 drop=0 speed= 6.2x    frame=29832 fps=149 q=32.0 size=   39767kB time=00:20:44.39 bitrate= 261.8kbits/s dup=1 drop=0 speed= 6.2x    frame=29903 fps=149 q=32.0 size=   39863kB time=00:20:47.38 bitrate= 261.8kbits/s dup=1 drop=0 speed= 6.2x    frame=29960 fps=149 q=32.0 size=   39956kB time=00:20:49.77 bitrate= 261.9kbits/s dup=1 drop=0 speed= 6.2x    frame=30013 fps=148 q=32.0 size=   40023kB time=00:20:51.94 bitrate= 261.9kbits/s dup=1 drop=0 speed=6.19x    frame=30071 fps=148 q=32.0 size=   40132kB time=00:20:54.37 bitrate= 262.1kbits/s dup=1 drop=0 speed=6.19x    frame=30121 fps=148 q=32.0 size=   40215kB time=00:20:56.42 bitrate= 262.2kbits/s dup=1 drop=0 speed=6.18x    frame=30165 fps=148 q=32.0 size=   40345kB time=00:20:58.30 bitrate= 262.7kbits/s dup=1 drop=0 speed=6.18x    frame=30202 fps=148 q=32.0 size=   40460kB time=00:20:59.84 bitrate= 263.1kbits/s dup=1 drop=0 speed=6.17x    frame=30241 fps=148 q=32.0 size=   40571kB time=00:21:01.46 bitrate= 263.5kbits/s dup=1 drop=0 speed=6.16x    frame=30285 fps=148 q=32.0 size=   40696kB time=00:21:03.29 bitrate= 263.9kbits/s dup=1 drop=0 speed=6.16x    frame=30328 fps=147 q=32.0 size=   40798kB time=00:21:05.08 bitrate= 264.2kbits/s dup=1 drop=0 speed=6.15x    frame=30372 fps=147 q=32.0 size=   40909kB time=00:21:06.92 bitrate= 264.5kbits/s dup=1 drop=0 speed=6.14x    frame=30421 fps=147 q=32.0 size=   41037kB time=00:21:08.97 bitrate= 264.9kbits/s dup=1 drop=0 speed=6.14x    frame=30457 fps=147 q=32.0 size=   41143kB time=00:21:10.46 bitrate= 265.3kbits/s dup=1 drop=0 speed=6.13x    frame=30478 fps=147 q=32.0 size=   41233kB time=00:21:11.36 bitrate= 265.7kbits/s dup=1 drop=0 speed=6.12x    frame=30504 fps=146 q=32.0 size=   41344kB time=00:21:12.42 bitrate= 266.2kbits/s dup=1 drop=0 speed=6.11x    frame=30562 fps=146 q=32.0 size=   41475kB time=00:21:14.85 bitrate= 266.5kbits/s dup=1 drop=0 speed= 6.1x    frame=30629 fps=146 q=32.0 size=   41567kB time=00:21:17.63 bitrate= 266.5kbits/s dup=1 drop=0 speed= 6.1x    frame=30683 fps=146 q=32.0 size=   41699kB time=00:21:19.89 bitrate= 266.9kbits/s dup=1 drop=0 speed= 6.1x    frame=30730 fps=146 q=32.0 size=   41820kB time=00:21:21.85 bitrate= 267.3kbits/s dup=1 drop=0 speed=6.09x    frame=30788 fps=146 q=32.0 size=   41928kB time=00:21:24.28 bitrate= 267.4kbits/s dup=1 drop=0 speed=6.09x    frame=30854 fps=146 q=32.0 size=   42063kB time=00:21:27.01 bitrate= 267.7kbits/s dup=1 drop=0 speed=6.09x    frame=30916 fps=146 q=32.0 size=   42178kB time=00:21:29.62 bitrate= 267.9kbits/s dup=1 drop=0 speed=6.08x    frame=30970 fps=146 q=32.0 size=   42301kB time=00:21:31.88 bitrate= 268.2kbits/s dup=1 drop=0 speed=6.08x    frame=31050 fps=146 q=32.0 size=   42438kB time=00:21:35.21 bitrate= 268.4kbits/s dup=1 drop=0 speed=6.08x    frame=31107 fps=146 q=32.0 size=   42572kB time=00:21:37.55 bitrate= 268.8kbits/s dup=1 drop=0 speed=6.08x    frame=31164 fps=146 q=32.0 size=   42676kB time=00:21:39.94 bitrate= 268.9kbits/s dup=1 drop=0 speed=6.07x    frame=31204 fps=145 q=32.0 size=   42780kB time=00:21:41.61 bitrate= 269.2kbits/s dup=1 drop=0 speed=6.07x    frame=31259 fps=145 q=32.0 size=   42876kB time=00:21:43.91 bitrate= 269.4kbits/s dup=1 drop=0 speed=6.06x    frame=31304 fps=145 q=32.0 size=   43012kB time=00:21:45.83 bitrate= 269.8kbits/s dup=1 drop=0 speed=6.06x    frame=31348 fps=145 q=32.0 size=   43146kB time=00:21:47.62 bitrate= 270.3kbits/s dup=1 drop=0 speed=6.05x    frame=31408 fps=145 q=32.0 size=   43229kB time=00:21:50.14 bitrate= 270.3kbits/s dup=1 drop=0 speed=6.05x    frame=31462 fps=145 q=32.0 size=   43373kB time=00:21:52.40 bitrate= 270.7kbits/s dup=1 drop=0 speed=6.04x    frame=31514 fps=145 q=32.0 size=   43488kB time=00:21:54.53 bitrate= 271.0kbits/s dup=1 drop=0 speed=6.04x    frame=31572 fps=145 q=32.0 size=   43586kB time=00:21:56.97 bitrate= 271.1kbits/s dup=1 drop=0 speed=6.04x    frame=31617 fps=145 q=32.0 size=   43689kB time=00:21:58.84 bitrate= 271.4kbits/s dup=1 drop=0 speed=6.03x    frame=31661 fps=144 q=32.0 size=   43841kB time=00:22:00.68 bitrate= 271.9kbits/s dup=1 drop=0 speed=6.03x    frame=31709 fps=144 q=32.0 size=   43926kB time=00:22:02.68 bitrate= 272.1kbits/s dup=1 drop=0 speed=6.02x    frame=31779 fps=144 q=32.0 size=   44046kB time=00:22:05.63 bitrate= 272.2kbits/s dup=1 drop=0 speed=6.02x    frame=31853 fps=144 q=32.0 size=   44147kB time=00:22:08.70 bitrate= 272.2kbits/s dup=1 drop=0 speed=6.02x    frame=31917 fps=144 q=32.0 size=   44236kB time=00:22:11.39 bitrate= 272.2kbits/s dup=1 drop=0 speed=6.02x    frame=31970 fps=144 q=32.0 size=   44326kB time=00:22:13.56 bitrate= 272.3kbits/s dup=1 drop=0 speed=6.01x    frame=32036 fps=144 q=32.0 size=   44412kB time=00:22:16.29 bitrate= 272.3kbits/s dup=1 drop=0 speed=6.01x    frame=32143 fps=144 q=32.0 size=   44514kB time=00:22:20.77 bitrate= 272.0kbits/s dup=1 drop=0 speed=6.02x    frame=32245 fps=144 q=32.0 size=   44623kB time=00:22:25.04 bitrate= 271.8kbits/s dup=1 drop=0 speed=6.02x    frame=32329 fps=144 q=32.0 size=   44706kB time=00:22:28.54 bitrate= 271.6kbits/s dup=1 drop=0 speed=6.03x    frame=32422 fps=145 q=32.0 size=   44800kB time=00:22:32.42 bitrate= 271.4kbits/s dup=1 drop=0 speed=6.03x    frame=32500 fps=145 q=32.0 size=   44885kB time=00:22:35.67 bitrate= 271.2kbits/s dup=1 drop=0 speed=6.03x    frame=32557 fps=145 q=32.0 size=   44979kB time=00:22:38.05 bitrate= 271.3kbits/s dup=1 drop=0 speed=6.03x    frame=32598 fps=144 q=32.0 size=   45127kB time=00:22:39.76 bitrate= 271.9kbits/s dup=1 drop=0 speed=6.02x    frame=32655 fps=144 q=32.0 size=   45254kB time=00:22:42.15 bitrate= 272.2kbits/s dup=1 drop=0 speed=6.02x    frame=32731 fps=144 q=32.0 size=   45349kB time=00:22:45.31 bitrate= 272.1kbits/s dup=1 drop=0 speed=6.02x    frame=32834 fps=144 q=32.0 size=   45420kB time=00:22:49.62 bitrate= 271.7kbits/s dup=1 drop=0 speed=6.02x    frame=32942 fps=145 q=32.0 size=   45503kB time=00:22:54.10 bitrate= 271.3kbits/s dup=1 drop=0 speed=6.03x    frame=32992 fps=144 q=32.0 size=   45608kB time=00:22:56.19 bitrate= 271.5kbits/s dup=1 drop=0 speed=6.03x    frame=33068 fps=144 q=32.0 size=   45710kB time=00:22:59.39 bitrate= 271.5kbits/s dup=1 drop=0 speed=6.03x    frame=33169 fps=145 q=32.0 size=   45800kB time=00:23:03.57 bitrate= 271.2kbits/s dup=1 drop=0 speed=6.03x    frame=33242 fps=145 q=32.0 size=   45857kB time=00:23:06.60 bitrate= 270.9kbits/s dup=1 drop=0 speed=6.03x    frame=33296 fps=145 q=32.0 size=   45953kB time=00:23:08.86 bitrate= 271.0kbits/s dup=1 drop=0 speed=6.03x    frame=33355 fps=144 q=32.0 size=   46021kB time=00:23:11.33 bitrate= 271.0kbits/s dup=1 drop=0 speed=6.03x    frame=33427 fps=144 q=32.0 size=   46120kB time=00:23:14.36 bitrate= 271.0kbits/s dup=1 drop=0 speed=6.03x    frame=33531 fps=145 q=32.0 size=   46205kB time=00:23:18.63 bitrate= 270.6kbits/s dup=1 drop=0 speed=6.03x    frame=33647 fps=145 q=32.0 size=   46273kB time=00:23:23.49 bitrate= 270.1kbits/s dup=1 drop=0 speed=6.04x    frame=33717 fps=145 q=32.0 size=   46349kB time=00:23:26.44 bitrate= 270.0kbits/s dup=1 drop=0 speed=6.04x    frame=33776 fps=145 q=32.0 size=   46441kB time=00:23:28.87 bitrate= 270.0kbits/s dup=1 drop=0 speed=6.04x    frame=33833 fps=145 q=32.0 size=   46524kB time=00:23:31.26 bitrate= 270.1kbits/s dup=1 drop=0 speed=6.03x    frame=33881 fps=145 q=32.0 size=   46607kB time=00:23:33.27 bitrate= 270.2kbits/s dup=1 drop=0 speed=6.03x    frame=33938 fps=144 q=32.0 size=   46715kB time=00:23:35.65 bitrate= 270.3kbits/s dup=1 drop=0 speed=6.03x    frame=33990 fps=144 q=32.0 size=   46776kB time=00:23:37.83 bitrate= 270.3kbits/s dup=1 drop=0 speed=6.02x    frame=34044 fps=144 q=32.0 size=   46840kB time=00:23:40.05 bitrate= 270.2kbits/s dup=1 drop=0 speed=6.02x    frame=34098 fps=144 q=32.0 size=   46904kB time=00:23:42.31 bitrate= 270.1kbits/s dup=1 drop=0 speed=6.02x    frame=34153 fps=144 q=32.0 size=   46968kB time=00:23:44.61 bitrate= 270.1kbits/s dup=1 drop=0 speed=6.01x    frame=34220 fps=144 q=32.0 size=   47064kB time=00:23:47.43 bitrate= 270.1kbits/s dup=1 drop=0 speed=6.01x    frame=34296 fps=144 q=32.0 size=   47122kB time=00:23:50.59 bitrate= 269.8kbits/s dup=1 drop=0 speed=6.01x    frame=34361 fps=144 q=32.0 size=   47235kB time=00:23:53.32 bitrate= 270.0kbits/s dup=1 drop=0 speed=6.01x    frame=34453 fps=144 q=32.0 size=   47350kB time=00:23:57.16 bitrate= 269.9kbits/s dup=1 drop=0 speed=6.01x    frame=34530 fps=144 q=32.0 size=   47434kB time=00:24:00.36 bitrate= 269.8kbits/s dup=1 drop=0 speed=6.01x    frame=34601 fps=144 q=32.0 size=   47516kB time=00:24:03.30 bitrate= 269.7kbits/s dup=1 drop=0 speed=6.01x    frame=34661 fps=144 q=32.0 size=   47650kB time=00:24:05.82 bitrate= 270.0kbits/s dup=1 drop=0 speed=6.01x    frame=34747 fps=144 q=32.0 size=   47762kB time=00:24:09.40 bitrate= 270.0kbits/s dup=1 drop=0 speed=6.01x    frame=34830 fps=144 q=32.0 size=   47829kB time=00:24:12.86 bitrate= 269.7kbits/s dup=1 drop=0 speed=6.02x    frame=34880 fps=144 q=32.0 size=   47962kB time=00:24:14.95 bitrate= 270.0kbits/s dup=1 drop=0 speed=6.01x    frame=34994 fps=144 q=32.0 size=   48076kB time=00:24:19.69 bitrate= 269.8kbits/s dup=1 drop=0 speed=6.02x    frame=35161 fps=145 q=32.0 size=   48177kB time=00:24:26.64 bitrate= 269.1kbits/s dup=1 drop=0 speed=6.04x    [mp4 @ 0x2e63100] Starting second pass: moving the moov atom to the beginning of the file
frame=35237 fps=145 q=-1.0 Lsize=   49193kB time=00:24:29.55 bitrate= 274.2kbits/s dup=1 drop=0 speed=6.03x    
video:38559kB audio:9799kB subtitle:0kB other streams:0kB global headers:0kB muxing overhead: 1.726464%
[libx264 @ 0x2dda340] frame I:322   Avg QP:21.68  size: 15267
[libx264 @ 0x2dda340] frame P:11679 Avg QP:24.59  size:  2315
[libx264 @ 0x2dda340] frame B:23236 Avg QP:28.20  size:   324
[libx264 @ 0x2dda340] consecutive B-frames:  3.8%  7.6% 51.7% 36.9%
[libx264 @ 0x2dda340] mb I  I16..4: 28.2% 46.7% 25.1%
[libx264 @ 0x2dda340] mb P  I16..4:  4.0%  4.1%  1.1%  P16..4: 27.5%  3.9%  3.3%  0.1%  0.0%    skip:56.0%
[libx264 @ 0x2dda340] mb B  I16..4:  0.2%  0.3%  0.1%  B16..8: 11.4%  0.8%  0.1%  direct: 0.3%  skip:86.8%  L0:41.2% L1:57.2% BI: 1.5%
[libx264 @ 0x2dda340] 8x8 transform intra:45.2% inter:57.9%
[libx264 @ 0x2dda340] coded y,uvDC,uvAC intra: 30.6% 54.9% 10.8% inter: 1.6% 3.7% 0.1%
[libx264 @ 0x2dda340] i16 v,h,dc,p: 43% 28% 17% 11%
[libx264 @ 0x2dda340] i8 v,h,dc,ddl,ddr,vr,hd,vl,hu: 22% 17% 39%  4%  3%  4%  3%  4%  4%
[libx264 @ 0x2dda340] i4 v,h,dc,ddl,ddr,vr,hd,vl,hu: 29% 18% 20%  5%  6%  6%  6%  6%  4%
[libx264 @ 0x2dda340] i8c dc,h,v,p: 47% 23% 24%  7%
[libx264 @ 0x2dda340] Weighted P-Frames: Y:1.2% UV:0.8%
[libx264 @ 0x2dda340] ref P L0: 61.9%  9.7% 12.0%  4.4%  3.3%  3.1%  2.8%  1.7%  0.9%  0.0%
[libx264 @ 0x2dda340] ref B L0: 82.4%  6.9%  4.6%  2.0%  1.6%  1.3%  1.2%
[libx264 @ 0x2dda340] ref B L1: 92.9%  7.1%
[libx264 @ 0x2dda340] kb/s:214.93
